<?xml version="1.0" encoding="UTF-8" standalone="no"?>
<!-- Generator: Fusion 360, Shaper Origin Export Add-In, Version 1.4.1  -->

<svg
   xmlns:shaper="http://www.shapertools.com/namespaces/shaper"
   xmlns:dc="http://purl.org/dc/elements/1.1/"
   xmlns:cc="http://creativecommons.org/ns#"
   xmlns:rdf="http://www.w3.org/1999/02/22-rdf-syntax-ns#"
   xmlns:svg="http://www.w3.org/2000/svg"
   xmlns="http://www.w3.org/2000/svg"
   xmlns:sodipodi="http://sodipodi.sourceforge.net/DTD/sodipodi-0.dtd"
   xmlns:inkscape="http://www.inkscape.org/namespaces/inkscape"
   enable-background="new 0 0 15.748 6.35"
   height="6.35cm"
   shaper:fusionaddin="version:1.4.1"
   version="1.1"
   viewBox="0 0 15.748 6.35"
   width="15.748cm"
   x="0cm"
   xml:space="preserve"
   y="0cm"
   id="svg871"
   sodipodi:docname="reflow_enc_bot.svg"
   inkscape:version="0.92.4 (5da689c313, 2019-01-14)"><metadata
     id="metadata877"><rdf:RDF><cc:Work
         rdf:about=""><dc:format>image/svg+xml</dc:format><dc:type
           rdf:resource="http://purl.org/dc/dcmitype/StillImage" /><dc:title></dc:title></cc:Work></rdf:RDF></metadata><defs
     id="defs875" /><sodipodi:namedview
     pagecolor="#ffffff"
     bordercolor="#666666"
     borderopacity="1"
     objecttolerance="10"
     gridtolerance="10"
     guidetolerance="10"
     inkscape:pageopacity="0"
     inkscape:pageshadow="2"
     inkscape:window-width="2560"
     inkscape:window-height="1017"
     id="namedview873"
     showgrid="false"
     inkscape:zoom="3.4946236"
     inkscape:cx="169.29688"
     inkscape:cy="154.33846"
     inkscape:window-x="-8"
     inkscape:window-y="-8"
     inkscape:window-maximized="1"
     inkscape:current-layer="svg871" /><path
     d="M15.494,0.254 L15.494,6.096 A0.254,0.254 0 0,1 15.24,6.35 L0,6.35 A0.254,0.254 90 0,1 -0.254,6.096 L-0.254,0.254 A0.254,0.254 180 0,1 0,-0 L15.24,0 A0.254,0.254 270 0,1 15.494,0.254z"
     fill="rgb(0,0,0)"
     shaper:cutDepth="0.003175"
     shaper:pathType="exterior"
     transform="matrix(1,0,0,-1,0.254,6.35)"
     vector-effect="non-scaling-stroke"
     id="path847"
     style="fill:#000000" /><path
     d="M8.573,5.969 a0.19,0.19 0 1,1 0.38,0 a0.19,0.19 0 1,1 -0.38,0z"
     fill="rgb(255,255,255)"
     shaper:cutDepth="0.003175"
     shaper:pathType="interior"
     stroke="rgb(0,0,0)"
     stroke-width="2"
     transform="matrix(1,0,0,-1,0.254,6.35)"
     vector-effect="non-scaling-stroke"
     id="path849" /><path
     d="M-0.063,0.381 a0.19,0.19 0 1,1 0.38,0 a0.19,0.19 0 1,1 -0.38,0z"
     fill="rgb(255,255,255)"
     shaper:cutDepth="0.003175"
     shaper:pathType="interior"
     stroke="rgb(0,0,0)"
     stroke-width="2"
     transform="matrix(1,0,0,-1,0.254,6.35)"
     vector-effect="non-scaling-stroke"
     id="path853" /><path
     d="M-0.063,5.969 a0.19,0.19 0 1,1 0.38,0 a0.19,0.19 0 1,1 -0.38,0z"
     fill="rgb(255,255,255)"
     shaper:cutDepth="0.003175"
     shaper:pathType="interior"
     stroke="rgb(0,0,0)"
     stroke-width="2"
     transform="matrix(1,0,0,-1,0.254,6.35)"
     vector-effect="non-scaling-stroke"
     id="path855" /><path
     d="M14.923,5.969 a0.19,0.19 0 1,1 0.38,0 a0.19,0.19 0 1,1 -0.38,0z"
     fill="rgb(255,255,255)"
     shaper:cutDepth="0.003175"
     shaper:pathType="interior"
     stroke="rgb(0,0,0)"
     stroke-width="2"
     transform="matrix(1,0,0,-1,0.254,6.35)"
     vector-effect="non-scaling-stroke"
     id="path863" /><path
     d="M14.923,0.381 a0.19,0.19 0 1,1 0.38,0 a0.19,0.19 0 1,1 -0.38,0z"
     fill="rgb(255,255,255)"
     shaper:cutDepth="0.003175"
     shaper:pathType="interior"
     stroke="rgb(0,0,0)"
     stroke-width="2"
     transform="matrix(1,0,0,-1,0.254,6.35)"
     vector-effect="non-scaling-stroke"
     id="path867" /><path
     d="M8.573,0.381 a0.19,0.19 0 1,1 0.38,0 a0.19,0.19 0 1,1 -0.38,0z"
     fill="rgb(255,255,255)"
     shaper:cutDepth="0.003175"
     shaper:pathType="interior"
     stroke="rgb(0,0,0)"
     stroke-width="2"
     transform="matrix(1,0,0,-1,0.254,6.35)"
     vector-effect="non-scaling-stroke"
     id="path869" /></svg>