<?xml version="1.0" encoding="utf-8"?>
<!-- Generator: Fusion 360, Shaper Origin Export Add-In, Version 1.4.1  -->
<svg enable-background="new 0 0 15.748 6.35" height="6.35cm" shaper:fusionaddin="version:1.4.1" version="1.1" viewBox="0 0 15.748 6.35" width="15.748cm" x="0cm" xml:space="preserve" xmlns="http://www.w3.org/2000/svg" xmlns:shaper="http://www.shapertools.com/namespaces/shaper" xmlns:xlink="http://www.w3.org/1999/xlink" y="0cm"><path d="M15.494,0.254 L15.494,6.096 A0.254,0.254 0 0,1 15.24,6.35 L0,6.35 A0.254,0.254 90 0,1 -0.254,6.096 L-0.254,0.254 A0.254,0.254 180 0,1 0,-0 L15.24,0 A0.254,0.254 270 0,1 15.494,0.254z" fill="rgb(0,0,0)" shaper:cutDepth="0.003175" shaper:pathType="exterior" transform="matrix(1,0,0,-1,0.254,6.35)" vector-effect="non-scaling-stroke" /><path d="M8.573,5.969 a0.19,0.19 0 1,1 0.38,0 a0.19,0.19 0 1,1 -0.38,0z" fill="rgb(255,255,255)" shaper:cutDepth="0.003175" shaper:pathType="interior" stroke="rgb(0,0,0)" stroke-width="2" transform="matrix(1,0,0,-1,0.254,6.35)" vector-effect="non-scaling-stroke" /><path d="M10.919,3.175 a1.4,1.4 0 1,1 2.8,0 a1.4,1.4 0 1,1 -2.8,0z" fill="rgb(255,255,255)" shaper:cutDepth="0.003175" shaper:pathType="interior" stroke="rgb(0,0,0)" stroke-width="2" transform="matrix(1,0,0,-1,0.254,6.35)" vector-effect="non-scaling-stroke" /><path d="M-0.063,0.381 a0.19,0.19 0 1,1 0.38,0 a0.19,0.19 0 1,1 -0.38,0z" fill="rgb(255,255,255)" shaper:cutDepth="0.003175" shaper:pathType="interior" stroke="rgb(0,0,0)" stroke-width="2" transform="matrix(1,0,0,-1,0.254,6.35)" vector-effect="non-scaling-stroke" /><path d="M-0.063,5.969 a0.19,0.19 0 1,1 0.38,0 a0.19,0.19 0 1,1 -0.38,0z" fill="rgb(255,255,255)" shaper:cutDepth="0.003175" shaper:pathType="interior" stroke="rgb(0,0,0)" stroke-width="2" transform="matrix(1,0,0,-1,0.254,6.35)" vector-effect="non-scaling-stroke" /><path d="M14.2454395,5.334 a0.163,0.163 0 1,1 0.326,0 a0.163,0.163 0 1,1 -0.326,0z" fill="rgb(255,255,255)" shaper:cutDepth="0.003175" shaper:pathType="interior" stroke="rgb(0,0,0)" stroke-width="2" transform="matrix(1,0,0,-1,0.254,6.35)" vector-effect="non-scaling-stroke" /><path d="M10.0665605,1.016 a0.163,0.163 0 1,1 0.326,0 a0.163,0.163 0 1,1 -0.326,0z" fill="rgb(255,255,255)" shaper:cutDepth="0.003175" shaper:pathType="interior" stroke="rgb(0,0,0)" stroke-width="2" transform="matrix(1,0,0,-1,0.254,6.35)" vector-effect="non-scaling-stroke" /><path d="M10.0665605,5.334 a0.163,0.163 0 1,1 0.326,0 a0.163,0.163 0 1,1 -0.326,0z" fill="rgb(255,255,255)" shaper:cutDepth="0.003175" shaper:pathType="interior" stroke="rgb(0,0,0)" stroke-width="2" transform="matrix(1,0,0,-1,0.254,6.35)" vector-effect="non-scaling-stroke" /><path d="M14.923,5.969 a0.19,0.19 0 1,1 0.38,0 a0.19,0.19 0 1,1 -0.38,0z" fill="rgb(255,255,255)" shaper:cutDepth="0.003175" shaper:pathType="interior" stroke="rgb(0,0,0)" stroke-width="2" transform="matrix(1,0,0,-1,0.254,6.35)" vector-effect="non-scaling-stroke" /><path d="M14.2454395,1.016 a0.163,0.163 0 1,1 0.326,0 a0.163,0.163 0 1,1 -0.326,0z" fill="rgb(255,255,255)" shaper:cutDepth="0.003175" shaper:pathType="interior" stroke="rgb(0,0,0)" stroke-width="2" transform="matrix(1,0,0,-1,0.254,6.35)" vector-effect="non-scaling-stroke" /><path d="M14.923,0.381 a0.19,0.19 0 1,1 0.38,0 a0.19,0.19 0 1,1 -0.38,0z" fill="rgb(255,255,255)" shaper:cutDepth="0.003175" shaper:pathType="interior" stroke="rgb(0,0,0)" stroke-width="2" transform="matrix(1,0,0,-1,0.254,6.35)" vector-effect="non-scaling-stroke" /><path d="M8.573,0.381 a0.19,0.19 0 1,1 0.38,0 a0.19,0.19 0 1,1 -0.38,0z" fill="rgb(255,255,255)" shaper:cutDepth="0.003175" shaper:pathType="interior" stroke="rgb(0,0,0)" stroke-width="2" transform="matrix(1,0,0,-1,0.254,6.35)" vector-effect="non-scaling-stroke" /></svg>